# xmcd CD database file
#
# Track frame offsets:
#	150
#	16035
#	29160
#	42863
#	56185
#	72162
#	88055
#	104865
#	116061
#	129474
#	142724
#	155345
#	169847
#	185636
#	199135
#	212710
#	229765
#	245568
#
# Disc length: 3491 seconds
#
# Revision: 0
# Processed by: cddbd v1.5.2PL0 Copyright (c) Steve Scherf et al.
# Submitted via: CDex 1.51
#
DISCID=080da112
DTITLE=Billie Holiday - Kind Of Holiday [CD6] - The 50's Vol.1
DYEAR=2009
DGENRE=Jazz
TTITLE0=Blue Moon (Rodgers/Hart)
TTITLE1=I Only Have Eyes For You (Warren/Dubin)
TTITLE2=Easy To Love (Porter)
TTITLE3=You Go To My Head (Gillespie/Coots)
TTITLE4=These Foolish Things (Strachey/Link/Maschwitz)
TTITLE5=Solitude (Ellington/Mills/De Lange)
TTITLE6=Autumn In New York (Duke)
TTITLE7=I Cried For You (Gross/Lawrence)
TTITLE8=Love For Sale (Porter)
TTITLE9=East Of The Sun (Bowman)
TTITLE10=If The Moon Turns Green (Coates/Hanighen)
TTITLE11=What A Little Moonlight Can Do (Woods)
TTITLE12=You Turned The Tables On Me (Mitchell/Atler)
TTITLE13=How Deep Is The Ocean (Berlin)
TTITLE14=Moonglow (Hudson/DeLange/Milis)
TTITLE15=Everything I Have Is Yours (Lane/Adamson)
TTITLE16=Stormy Blues (Holiday)
TTITLE17=PS I Love You (Jenkins/Mercer)
EXTD=YEAR: 2009
EXTT0=
EXTT1=
EXTT2=
EXTT3=
EXTT4=
EXTT5=
EXTT6=
EXTT7=
EXTT8=
EXTT9=
EXTT10=
EXTT11=
EXTT12=
EXTT13=
EXTT14=
EXTT15=
EXTT16=
EXTT17=
PLAYORDER=
